<?xml version="1.0" encoding="UTF-8" standalone="no"?>
<svg
   xmlns:dc="http://purl.org/dc/elements/1.1/"
   xmlns:cc="http://creativecommons.org/ns#"
   xmlns:rdf="http://www.w3.org/1999/02/22-rdf-syntax-ns#"
   xmlns:svg="http://www.w3.org/2000/svg"
   xmlns="http://www.w3.org/2000/svg"
   xmlns:sodipodi="http://sodipodi.sourceforge.net/DTD/sodipodi-0.dtd"
   xmlns:inkscape="http://www.inkscape.org/namespaces/inkscape"
   version="1.1"
   id="svg833"
   width="285"
   height="294"
   viewBox="0 0 285 294"
   sodipodi:docname="reminder-logo.svg"
   inkscape:version="1.0.2-2 (e86c870879, 2021-01-15)"
   inkscape:export-filename="C:\Desenvolvimento\knowledge\Electron\my-electron-app\src\assets\create-icon.png"
   inkscape:export-xdpi="45.675739"
   inkscape:export-ydpi="45.675739">
  <metadata
     id="metadata839">
    <rdf:RDF>
      <cc:Work
         rdf:about="">
        <dc:format>image/svg+xml</dc:format>
        <dc:type
           rdf:resource="http://purl.org/dc/dcmitype/StillImage" />
        <dc:title />
      </cc:Work>
    </rdf:RDF>
  </metadata>
  <defs
     id="defs837" />
  <sodipodi:namedview
     pagecolor="#ffffff"
     bordercolor="#666666"
     borderopacity="1"
     objecttolerance="10"
     gridtolerance="10"
     guidetolerance="10"
     inkscape:pageopacity="0"
     inkscape:pageshadow="2"
     inkscape:window-width="2560"
     inkscape:window-height="1017"
     id="namedview835"
     showgrid="false"
     inkscape:zoom="1.4455782"
     inkscape:cx="380.45457"
     inkscape:cy="53.001745"
     inkscape:window-x="-8"
     inkscape:window-y="-8"
     inkscape:window-maximized="1"
     inkscape:current-layer="g841"
     inkscape:document-rotation="0" />
  <g
     inkscape:groupmode="layer"
     inkscape:label="Image"
     id="g841">
    <path
       style="opacity:0.828729;fill:#28e1ba;fill-opacity:1;stroke:none;stroke-opacity:1"
       d="m -356.22324,12.803577 c -8.82212,12.758048 2.73689,29.894288 -9.42752,41.5761 -14.36132,13.79163 -43.95618,-5.516903 -49.14584,21.756147 -3.73648,19.636944 22.80125,25.307406 18.08064,46.546286 -3.83537,17.25613 -29.3557,18.38132 -24.62978,39.62727 4.94632,22.23592 30.94029,10.84257 42.67443,24.6765 12.56784,14.81684 -6.23759,33.09843 5.69255,47.62011 18.09412,22.02475 35.05556,-9.76429 55.70298,-3.47564 18.45256,5.61991 16.27542,40.2699 41.82608,31.73148 18.34473,-6.1308 11.0396,-30.2956 27.78108,-37.79262 18.12189,-8.11452 38.5915,18.62466 53.20463,-2.54398 10.99832,-15.93296 -8.37349,-29.42848 -2.93615,-46.21556 6.55385,-20.23252 36.69905,-10.54084 39.34146,-34.01039 2.55889,-22.73507 -25.29884,-19.91348 -31.44756,-37.35109 -6.70257,-19.009302 17.82352,-29.823061 10.58557,-47.591698 -9.99128,-24.525664 -32.95974,-4.465058 -49.95712,-12.605931 -14.47139,-6.930783 -9.02497,-21.417005 -13.79321,-33.449404 -4.38585,-11.06510963 -18.19725,-16.8877756 -28.75709,-10.93881063 -9.69317,5.46100903 -11.98884,18.48875963 -22.99536,22.27312863 -22.0767,7.590984 -42.94352,-37.10078 -61.79979,-9.831898 m -5.48383,54.790553 c 8.05258,-9.398342 18.90066,-18.132243 30.12208,-23.36728 10.47213,-4.885457 22.64349,-8.251566 34.24432,-8.474546 76.01116,-1.460808 123.85507,89.999516 72.88427,149.487716 -8.16367,9.5273 -18.90641,17.86053 -30.1835,23.30001 -10.10622,4.87385 -21.77364,7.80134 -32.95956,8.39836 -77.23932,4.12327 -124.72821,-90.26449 -74.10761,-149.34426 m 15.5155,3.641834 c -11.28096,12.754324 -19.90464,26.343494 -22.48055,43.595846 -6.47685,43.3803 27.723,85.60547 71.49487,88.23034 24.27194,1.45581 46.75418,-9.44411 62.61637,-27.40211 5.73946,-6.49641 10.00592,-14.75972 13.00652,-22.82976 22.48755,-60.486082 -39.413,-120.192281 -99.00289,-98.012631 -9.03812,3.363845 -19.18129,9.122511 -25.63432,16.418315 m 25.72094,8.883984 c 7.59516,-10.348432 14.49441,-2.894215 23.10117,0.10238 5.81234,2.02493 11.65371,1.3607 17.18144,4.62207 13.43123,7.92421 15.15885,23.375812 24.29128,34.695522 4.30955,5.34103 22.51337,10.72359 17.5432,19.41159 -2.74725,4.80355 -12.43767,7.07512 -17.25445,9.21696 -15.7687,7.01209 -31.65358,13.72942 -47.41939,20.74022 -5.14471,2.28696 -14.74489,9.01184 -20.24295,5.33872 -6.69016,-4.46952 0.11319,-18.24623 -0.74021,-25.0186 -1.66605,-13.23117 -10.96014,-24.87319 -9.16898,-38.56153 1.00728,-7.69312 6.37208,-11.651932 8.9554,-18.346082 1.58063,-4.09537 1.03695,-8.49989 3.75349,-12.20125 m 30.28398,91.994712 c 2.9669,-6.09035 36.8921,-20.27752 29.71146,-4.00822 -3.11465,7.05551 -12.61294,12.05669 -20.14925,11.65109 -3.09349,-0.16624 -11.84158,-2.96467 -9.56221,-7.64287 z"
       id="path847"
       inkscape:export-filename="C:\Desenvolvimento\knowledge\Electron\my-electron-app\public\icon.png"
       inkscape:export-xdpi="46.15752"
       inkscape:export-ydpi="46.15752" />
    <g
       id="g1076"
       inkscape:export-xdpi="42.275017"
       inkscape:export-ydpi="42.275017"
       transform="translate(-436.32316,-324.79661)">
      <g
         id="g14"
         transform="matrix(2.3747396,0,0,2.3747396,-3.5774417,-6.3482235)"
         style="opacity:0.83;fill:#28e1ba">
        <path
           d="M 90.2,125.2 H 37.8 c -9,0 -16.2,-7.3 -16.2,-16.2 V 32.3 c 0,-9 7.3,-16.2 16.2,-16.2 h 52.4 c 9,0 16.2,7.3 16.2,16.2 V 109 c 0.1,9 -7.2,16.2 -16.2,16.2 z M 37.8,18.6 C 30.2,18.6 24,24.8 24,32.4 V 109 c 0,7.6 6.2,13.8 13.8,13.8 h 52.4 c 7.6,0 13.8,-6.2 13.8,-13.8 V 32.3 C 104,24.7 97.8,18.5 90.2,18.5 H 37.8 Z"
           fill="#502d4b"
           id="path12"
           style="fill:#28e1ba" />
      </g>
      <g
         id="g22"
         transform="matrix(2.3747396,0,0,2.3747396,-3.5774417,-6.3482235)"
         style="opacity:0.83;fill:#28e1ba">
        <path
           d="m 91.9,103.6 h -33 c -0.7,0 -1.2,-0.6 -1.2,-1.2 0,-0.6 0.6,-1.2 1.2,-1.2 h 33 c 0.7,0 1.2,0.6 1.2,1.2 0,0.6 -0.5,1.2 -1.2,1.2 z"
           fill="#502d4b"
           id="path20"
           style="fill:#28e1ba" />
      </g>
      <g
         id="g26"
         transform="matrix(2.3747396,0,0,2.3747396,-3.5774417,-6.3482235)"
         style="opacity:0.83;fill:#28e1ba">
        <path
           d="m 91.9,76.9 h -33 c -0.7,0 -1.2,-0.6 -1.2,-1.2 0,-0.6 0.6,-1.2 1.2,-1.2 h 33 c 0.7,0 1.2,0.6 1.2,1.2 0,0.6 -0.5,1.2 -1.2,1.2 z"
           fill="#502d4b"
           id="path24"
           style="fill:#28e1ba" />
      </g>
      <g
         id="g30"
         transform="matrix(2.3747396,0,0,2.3747396,-3.5774417,-6.3482235)"
         style="opacity:0.83;fill:#f9f9f9">
        <circle
           cx="38.900002"
           cy="49"
           fill="#e074a3"
           r="7.5"
           id="circle28"
           style="fill:#f9f9f9" />
      </g>
      <g
         id="g34"
         transform="matrix(2.3747396,0,0,2.3747396,-3.5774417,-6.3482235)"
         style="opacity:0.83;fill:#f9f9f9">
        <circle
           cx="38.900002"
           cy="75.699997"
           fill="#e074a3"
           r="7.5"
           id="circle32"
           style="fill:#f9f9f9" />
      </g>
      <g
         id="g38"
         transform="matrix(2.3747396,0,0,2.3747396,-3.5774417,-6.3482235)"
         style="opacity:0.83;fill:#f9f9f9">
        <circle
           cx="38.900002"
           cy="102.3"
           fill="#e7e8e3"
           r="7.5"
           id="circle36"
           style="fill:#f9f9f9" />
      </g>
      <g
         id="g42"
         transform="matrix(2.3747396,0,0,2.3747396,-3.5774417,-6.3482235)"
         style="opacity:0.83;fill:#28e1ba">
        <path
           d="m 38.9,111.1 c -4.8,0 -8.8,-3.9 -8.8,-8.8 0,-4.9 3.9,-8.8 8.8,-8.8 4.9,0 8.8,3.9 8.8,8.8 0,4.9 -4,8.8 -8.8,8.8 z m 0,-15 c -3.4,0 -6.2,2.8 -6.2,6.2 0,3.4 2.8,6.2 6.2,6.2 3.4,0 6.2,-2.8 6.2,-6.2 0,-3.4 -2.8,-6.2 -6.2,-6.2 z"
           fill="#502d4b"
           id="path40"
           style="fill:#28e1ba" />
      </g>
      <g
         id="g46"
         transform="matrix(2.3747396,0,0,2.3747396,-3.5774417,-6.3482235)"
         style="opacity:0.83;fill:#28e1ba">
        <path
           d="m 38.9,84.4 c -4.8,0 -8.8,-3.9 -8.8,-8.8 0,-4.9 3.9,-8.8 8.8,-8.8 4.9,0 8.8,3.9 8.8,8.8 0,4.9 -4,8.8 -8.8,8.8 z m 0,-15 c -3.4,0 -6.2,2.8 -6.2,6.2 0,3.4 2.8,6.2 6.2,6.2 3.4,0 6.2,-2.8 6.2,-6.2 0,-3.4 -2.8,-6.2 -6.2,-6.2 z"
           fill="#502d4b"
           id="path44"
           style="fill:#28e1ba" />
      </g>
      <g
         id="g50"
         transform="matrix(2.3747396,0,0,2.3747396,-3.5774417,-6.3482235)"
         style="opacity:0.83;fill:#28e1ba">
        <path
           d="m 38.9,57.8 c -4.8,0 -8.8,-3.9 -8.8,-8.8 0,-4.9 3.9,-8.8 8.8,-8.8 4.9,0 8.8,3.9 8.8,8.8 0,4.9 -4,8.8 -8.8,8.8 z m 0,-15 c -3.4,0 -6.2,2.8 -6.2,6.2 0,3.4 2.8,6.2 6.2,6.2 3.4,0 6.2,-2.8 6.2,-6.2 0,-3.4 -2.8,-6.2 -6.2,-6.2 z"
           fill="#502d4b"
           id="path48"
           style="fill:#28e1ba" />
      </g>
      <g
         id="g54"
         transform="matrix(2.3747396,0,0,2.3747396,-3.5774417,-6.3482235)"
         style="opacity:0.83;fill:#28e1ba">
        <path
           d="m 91.9,50.2 h -33 c -0.7,0 -1.2,-0.6 -1.2,-1.2 0,-0.6 0.6,-1.2 1.2,-1.2 h 33 c 0.7,0 1.2,0.6 1.2,1.2 0,0.6 -0.5,1.2 -1.2,1.2 z"
           fill="#502d4b"
           id="path52"
           style="fill:#28e1ba" />
      </g>
      <g
         id="g58"
         transform="matrix(2.3747396,0,0,2.3747396,-3.5774417,-6.3482235)"
         style="opacity:0.83;fill:#28e1ba">
        <path
           d="M 77.3,31.9 H 50.7 c -4.4,0 -7.9,-3.6 -7.9,-7.9 v -6.7 c 0,-0.7 0.6,-1.2 1.2,-1.2 h 12.1 v -5.4 c 0,-4.4 3.6,-7.9 7.9,-7.9 4.3,0 7.9,3.6 7.9,7.9 v 5.4 H 84 c 0.7,0 1.2,0.6 1.2,1.2 V 24 c 0,4.4 -3.5,7.9 -7.9,7.9 z M 45.2,18.6 V 24 c 0,3 2.4,5.4 5.4,5.4 h 26.7 c 3,0 5.4,-2.4 5.4,-5.4 v -5.4 h -12 C 70,18.6 69.5,18 69.5,17.4 v -6.7 c 0,-3 -2.4,-5.4 -5.4,-5.4 -3,0 -5.4,2.4 -5.4,5.4 v 6.7 c 0,0.7 -0.6,1.2 -1.2,1.2 z"
           fill="#502d4b"
           id="path56"
           style="fill:#28e1ba" />
      </g>
      <g
         id="g62"
         transform="matrix(2.3747396,0,0,2.3747396,-3.5774417,-6.3482235)"
         style="opacity:0.83;fill:#28e1ba">
        <path
           d="m 64,15.8 c -2.8,0 -5,-2.2 -5,-5 0,-2.8 2.2,-5 5,-5 2.8,0 5,2.2 5,5 0,2.8 -2.2,5 -5,5 z m 0,-7.6 c -1.4,0 -2.5,1.1 -2.5,2.5 0,1.4 1.1,2.5 2.5,2.5 1.4,0 2.5,-1.1 2.5,-2.5 0,-1.4 -1.1,-2.5 -2.5,-2.5 z"
           fill="#502d4b"
           id="path60"
           style="fill:#28e1ba" />
      </g>
    </g>
    <g
       id="g1022"
       transform="matrix(3.0737015,0,0,3.0737015,-701.27391,-27.294008)"
       style="opacity:0.83"
       inkscape:export-xdpi="45.675739"
       inkscape:export-ydpi="45.675739">
      <g
         id="g989"
         transform="translate(91.430425,99.975843)"
         style="fill:#28e1ba">
        <path
           d="M 24.018,49.415 42.149,67.54 80.268,29.418 62.145,11.292 Z M 66.444,25.118 c 1.259,1.262 1.259,3.306 0,4.566 L 44.369,51.753 c -0.629,0.633 -1.455,0.946 -2.278,0.946 -0.831,0 -1.655,-0.313 -2.284,-0.946 -1.261,-1.262 -1.261,-3.305 0,-4.565 l 22.072,-22.07 c 1.259,-1.261 3.304,-1.261 4.565,0 z"
           fill="#6ec4a7"
           id="path983"
           style="fill:#28e1ba" />
        <polygon
           fill="#65b794"
           points="15.72,75.578 35.863,70.393 21.111,55.641 "
           id="polygon985"
           style="fill:#28e1ba" />
        <path
           d="M 87.621,12.533 79.028,3.937 c -2.548,-2.546 -6.992,-2.543 -9.53,0 l -2.792,2.793 18.129,18.124 2.786,-2.788 c 2.623,-2.63 2.623,-6.907 0,-9.533 z"
           fill="#65b794"
           id="path987"
           style="fill:#28e1ba" />
      </g>
      <g
         id="g1014">
        <path
           d="M 171.01542,189.52984 H 94.891425 c -1.833,0 -3.318,-1.486 -3.318,-3.319 v -80.723 c 0,-1.833 1.484,-3.318 3.318,-3.318 h 51.112995 c 1.835,0 3.317,1.485 3.317,3.318 0,1.832 -1.482,3.318 -3.317,3.318 H 98.209425 v 74.086 h 72.805995 c 2.592,0 4.701,-2.108 4.701,-4.701 v -41.627 c 0,-1.833 1.484,-3.318 3.317,-3.318 1.832,0 3.318,1.485 3.318,3.318 v 41.627 c 0.001,6.252 -5.085,11.339 -11.336,11.339 z"
           fill="#647f94"
           id="path991"
           style="fill:#28e1ba" />
      </g>
    </g>
    <g
       id="g1164"
       transform="matrix(1.315958,0,0,1.315958,-53.979825,-32.001391)"
       inkscape:export-xdpi="50.219425"
       inkscape:export-ydpi="50.219425">
      <path
         d="m 246.92305,62.230913 -12.11118,12.111175 -0.77667,0.776202 c 0,0.07771 -0.0769,0.155427 -0.15496,0.23314 l -9.39408,9.315901 -94.79339,94.793319 -16.14784,4.7357 5.35686,-15.52715 94.79293,-94.715679 9.39408,-9.393614 v -0.07771 L 236.13152,51.43947 c 1.47508,-1.475079 3.41598,-2.174033 5.35687,-2.174033 2.01861,0 3.9595,0.698954 5.43458,2.174033 2.95031,2.950158 2.95031,7.84121 8e-5,10.791446 z"
         style="fill:#f4f4f4;stroke-width:7.76357"
         id="path1103" />
      <path
         d="M 246.92305,62.230913 129.69277,179.46065 113.54493,184.19635 118.90179,168.6692 236.1316,51.43939 c 1.47508,-1.475079 3.41597,-2.174034 5.35687,-2.174034 2.01861,0 3.9595,0.698955 5.43458,2.174034 2.95023,2.950235 2.95023,7.841287 0,10.791523 z"
         style="fill:#f4f4f4;stroke-width:7.76357"
         id="path1105" />
      <path
         d="m 223.0888,64.559829 c 0,0 7.59766,2.384349 10.99997,9.218468 l -8.51811,9.813468 c 0,0 -5.21014,-9.824803 -11.87276,-9.669842 z"
         style="fill:#28e1ba;stroke-width:7.76357"
         id="path1107" />
      <path
         d="m 230.46412,100.66037 4.96868,-4.968687 6.67668,-6.599038 V 209.1175 c 0,12.88753 -9.78211,23.36836 -21.73801,23.36836 H 72.24248 c -12.03354,0 -21.815643,-10.48083 -21.815643,-23.36836 V 81.71725 c 0,-12.887533 9.782103,-23.368357 21.815643,-23.368357 H 207.32867 L 195.6833,69.994254 H 72.24248 c -5.589774,0 -10.170282,5.27923 -10.170282,11.722996 V 209.1175 c 0,6.44376 4.580508,11.72299 10.170282,11.72299 h 148.12899 c 5.58977,0 10.09265,-5.27923 10.09265,-11.72299 z"
         style="fill:#5f83cf;stroke-width:7.76357"
         id="path1109" />
      <path
         d="m 230.46412,100.66037 4.96868,-4.968687 6.67668,-6.599038 V 209.1175 c 0,12.88753 -9.78211,23.36836 -21.73801,23.36836 H 72.24248 c -12.03354,0 -21.815643,-10.48083 -21.815643,-23.36836 V 81.71725 c 0,-12.887533 9.782103,-23.368357 21.815643,-23.368357 H 207.32867 L 195.6833,69.994254 H 72.24248 c -5.589774,0 -10.170282,5.27923 -10.170282,11.722996 V 209.1175 c 0,6.44376 4.580508,11.72299 10.170282,11.72299 h 148.12899 c 5.58977,0 10.09265,-5.27923 10.09265,-11.72299 z"
         style="opacity:0.83;fill:#28e1ba;stroke:none;stroke-width:5.4345;stroke-linecap:round;stroke-linejoin:round;stroke-miterlimit:10"
         id="path1111" />
      <path
         d="m 246.92305,62.230913 -22.43681,22.43634 -94.79347,94.793397 -16.14784,4.7357 5.35686,-15.52715 94.79293,-94.715679 22.4368,-22.514054 c 1.47508,-1.475079 3.41598,-2.174033 5.35687,-2.174033 2.01861,0 3.9595,0.698954 5.43458,2.174033 2.95031,2.950158 2.95031,7.84121 8e-5,10.791446 z"
         style="opacity:0.83;fill:#ffffff;fill-opacity:1;stroke:#28e1ba;stroke-width:5.4345;stroke-linecap:round;stroke-linejoin:round;stroke-miterlimit:10"
         id="path1113" />
      <path
         d="m 234.07992,74.925055 c 0.32033,-2.575566 -8.14903,-11.013018 -10.70333,-10.480049"
         style="opacity:0.83;fill:#28e1ba;stroke:#28e1ba;stroke-width:5.4345;stroke-linecap:round;stroke-linejoin:round;stroke-miterlimit:10;stroke-opacity:1"
         id="path1115" />
      <path
         d="m 213.85395,73.842191 c 2.4227,-0.91944 11.63302,8.349025 10.76458,10.61529"
         style="opacity:0.83;fill:#28e1ba;stroke:#28e1ba;stroke-width:5.4345;stroke-linecap:round;stroke-linejoin:round;stroke-miterlimit:10;stroke-opacity:1"
         id="path1117" />
    </g>
  </g>
</svg>
