<?xml version="1.0" encoding="UTF-8" standalone="no"?>
<svg
   xmlns:dc="http://purl.org/dc/elements/1.1/"
   xmlns:cc="http://creativecommons.org/ns#"
   xmlns:rdf="http://www.w3.org/1999/02/22-rdf-syntax-ns#"
   xmlns:svg="http://www.w3.org/2000/svg"
   xmlns="http://www.w3.org/2000/svg"
   xmlns:sodipodi="http://sodipodi.sourceforge.net/DTD/sodipodi-0.dtd"
   xmlns:inkscape="http://www.inkscape.org/namespaces/inkscape"
   version="1.1"
   id="svg833"
   width="285"
   height="294"
   viewBox="0 0 285 294"
   sodipodi:docname="reminder-logo.svg"
   inkscape:version="1.0.2-2 (e86c870879, 2021-01-15)">
  <metadata
     id="metadata839">
    <rdf:RDF>
      <cc:Work
         rdf:about="">
        <dc:format>image/svg+xml</dc:format>
        <dc:type
           rdf:resource="http://purl.org/dc/dcmitype/StillImage" />
        <dc:title></dc:title>
      </cc:Work>
    </rdf:RDF>
  </metadata>
  <defs
     id="defs837" />
  <sodipodi:namedview
     pagecolor="#ffffff"
     bordercolor="#666666"
     borderopacity="1"
     objecttolerance="10"
     gridtolerance="10"
     guidetolerance="10"
     inkscape:pageopacity="0"
     inkscape:pageshadow="2"
     inkscape:window-width="2560"
     inkscape:window-height="1017"
     id="namedview835"
     showgrid="false"
     inkscape:zoom="1.4455782"
     inkscape:cx="-121.31364"
     inkscape:cy="159.84978"
     inkscape:window-x="-8"
     inkscape:window-y="-8"
     inkscape:window-maximized="1"
     inkscape:current-layer="g841" />
  <g
     inkscape:groupmode="layer"
     inkscape:label="Image"
     id="g841">
    <path
       style="opacity:0.828729;fill:#28e1ba;fill-opacity:1;stroke:none;stroke-opacity:1"
       d="m 69.903825,33.556519 c -8.82212,12.758048 2.73689,29.894288 -9.42752,41.5761 -14.36132,13.79163 -43.95618,-5.516903 -49.145839,21.756147 -3.7364799,19.636944 22.801249,25.307404 18.080639,46.546284 -3.83537,17.25613 -29.35569928,18.38132 -24.6297789,39.62727 4.94632,22.23592 30.9402889,10.84257 42.6744289,24.6765 12.56784,14.81684 -6.23759,33.09843 5.69255,47.62011 18.09412,22.02475 35.05556,-9.76429 55.702985,-3.47564 18.45256,5.61991 16.27542,40.2699 41.82608,31.73148 18.34473,-6.1308 11.0396,-30.2956 27.78108,-37.79262 18.12189,-8.11452 38.5915,18.62466 53.20463,-2.54398 10.99832,-15.93296 -8.37349,-29.42848 -2.93615,-46.21556 6.55385,-20.23252 36.69905,-10.54084 39.34146,-34.01039 2.55889,-22.73507 -25.29884,-19.91348 -31.44756,-37.35109 -6.70257,-19.0093 17.82352,-29.823059 10.58557,-47.591696 C 237.21512,53.58377 214.24666,73.644376 197.24928,65.503503 182.77789,58.57272 188.22431,44.086498 183.45607,32.054099 179.07022,20.988989 165.25882,15.166323 154.69898,21.115288 145.00581,26.576297 142.71014,39.604048 131.70362,43.388417 109.62692,50.979401 88.760095,6.2876363 69.903825,33.556519 m -5.48383,54.790553 c 8.05258,-9.398342 18.90066,-18.132243 30.122079,-23.36728 10.472136,-4.885457 22.643496,-8.251566 34.244326,-8.474546 76.01116,-1.460808 123.85507,89.999514 72.88427,149.487714 -8.16367,9.5273 -18.90641,17.86053 -30.1835,23.30001 -10.10622,4.87385 -21.77364,7.80134 -32.95956,8.39836 C 61.288285,241.8146 13.799395,147.42684 64.419995,88.347072 m 15.5155,3.641834 c -11.28096,12.754324 -19.90464,26.343494 -22.48055,43.595844 -6.47685,43.3803 27.723,85.60547 71.494875,88.23034 24.27194,1.45581 46.75418,-9.44411 62.61637,-27.40211 5.73946,-6.49641 10.00592,-14.75972 13.00652,-22.82976 22.48755,-60.48608 -39.413,-120.192279 -99.00289,-98.012629 -9.038126,3.363845 -19.181295,9.122511 -25.634325,16.418315 m 25.720945,8.883984 c 7.59516,-10.348432 14.49441,-2.894215 23.10117,0.10238 5.81234,2.02493 11.65371,1.3607 17.18144,4.62207 13.43123,7.92421 15.15885,23.37581 24.29128,34.69552 4.30955,5.34103 22.51337,10.72359 17.5432,19.41159 -2.74725,4.80355 -12.43767,7.07512 -17.25445,9.21696 -15.7687,7.01209 -31.65358,13.72942 -47.41939,20.74022 -5.14471,2.28696 -14.74489,9.01184 -20.24295,5.33872 -6.690166,-4.46952 0.11319,-18.24623 -0.74021,-25.0186 -1.66605,-13.23117 -10.960146,-24.87319 -9.168986,-38.56153 1.00728,-7.69312 6.37208,-11.65193 8.955406,-18.34608 1.58063,-4.09537 1.03695,-8.49989 3.75349,-12.20125 m 30.28398,91.99471 c 2.9669,-6.09035 36.8921,-20.27752 29.71146,-4.00822 -3.11465,7.05551 -12.61294,12.05669 -20.14925,11.65109 -3.09349,-0.16624 -11.84158,-2.96467 -9.56221,-7.64287 z"
       id="path847"
       inkscape:export-filename="C:\Desenvolvimento\knowledge\Electron\my-electron-app\public\icon.png"
       inkscape:export-xdpi="46.15752"
       inkscape:export-ydpi="46.15752" />
  </g>
</svg>
